<svg width="18" height="28" viewBox="0 0 18 28" fill="none" xmlns="http://www.w3.org/2000/svg">
<path d="M17.7459 3.0462C17.5082 2.67742 17.1611 2.66683 16.7655 2.65476C16.7206 2.65339 16.6752 2.65201 16.6292 2.65008C16.5942 2.64845 16.5556 2.64908 16.5152 2.64973C16.3547 2.65234 16.1671 2.6554 16.0725 2.51879C15.9629 2.36041 15.9733 2.05434 15.9819 1.80167C15.9846 1.72182 15.9871 1.64726 15.9856 1.58443C15.9702 0.997471 15.9381 0.373965 15.7145 0.165528C15.5459 0.00914051 15.0415 0.0308058 14.5763 0.0507864C14.4255 0.0572636 14.2788 0.0635638 14.149 0.0635638H4.24712C4.04775 0.0635638 3.83876 0.0471134 3.63343 0.0309501C3.23332 -0.000544883 2.84706 -0.0309501 2.57276 0.0635638C2.17468 0.2014 2.14773 0.925704 2.12234 1.60774L2.12098 1.64444C2.09967 2.20749 1.96197 2.64196 1.50559 2.5982C0.974795 2.54812 0.446622 2.53233 0.206632 3.01913C-0.0768018 3.5951 -0.0183467 4.19802 0.0863552 5.27793C0.101311 5.43219 0.117211 5.59618 0.133193 5.77122H17.899C17.9091 5.64328 17.92 5.51698 17.9306 5.39273C18.0138 4.42114 18.0863 3.57461 17.7459 3.0462Z" fill="#8047F8"/>
<path fill-rule="evenodd" clip-rule="evenodd" d="M1.51674 6.84228C1.79421 10.6477 2.06864 14.4574 2.34309 18.2672L2.34326 18.2695C2.49227 20.3381 2.64128 22.4067 2.79078 24.4746H3.35765C3.39627 24.7983 3.44047 25.1979 3.48707 25.6193C3.58166 26.4745 3.68616 27.4194 3.77402 28H3.83672C4.41412 27.7859 8.40574 26.057 8.40753 19.1738C8.40679 19.1541 8.40744 19.1345 8.40945 19.115H7.42329C7.37555 19.1146 7.32928 19.0984 7.29159 19.0691C7.2539 19.0397 7.22689 18.9988 7.2147 18.9525C7.1186 18.712 7.04112 18.4644 6.98293 18.2119C6.40279 18.5439 5.94209 19.0509 5.66649 19.6606C5.40488 19.0362 5.37063 18.3395 5.56975 17.6923C5.76886 17.0452 6.18866 16.4886 6.7558 16.1201C6.76311 14.1115 7.50524 12.1753 8.84171 10.678L8.86257 10.6594C8.90142 10.6254 8.95115 10.6065 9.00273 10.6061C9.03255 10.6063 9.06201 10.6128 9.08923 10.625C9.11678 10.6374 9.14142 10.6555 9.16155 10.678C10.5136 12.1774 11.2518 14.1322 11.2289 16.1526C11.8067 16.5109 12.235 17.067 12.4345 17.7177C12.6339 18.3684 12.591 19.0694 12.3136 19.6908C12.0395 19.0801 11.5784 18.5727 10.9972 18.2421C10.9617 18.4868 10.8963 18.7261 10.8025 18.9548C10.77 19.0523 10.7051 19.115 10.6402 19.115H9.58855C9.59021 19.1267 9.59139 19.1384 9.59206 19.1502L9.59246 19.1529V19.1586C9.59284 19.1687 9.59286 19.1789 9.5925 19.189C9.60689 26.2699 13.8509 27.8771 14.2086 28H14.3309C14.3622 27.4423 14.4639 26.6727 14.563 25.9225C14.6313 25.4054 14.6984 24.8976 14.7404 24.4746H15.3139C15.4974 21.8698 15.6862 19.2724 15.8749 16.6748L15.875 16.6734L15.8751 16.6726C16.1166 13.3501 16.358 10.0275 16.5886 6.68934H1.55346C1.51018 6.69791 1.51313 6.76964 1.51674 6.84228ZM9.00273 10.6061L9.00163 10.606H9.00395L9.00273 10.6061Z" fill="#8047F8"/>
</svg>
